<svg width="35" height="40" viewBox="0 0 35 40" fill="none" xmlns="http://www.w3.org/2000/svg">
    <path d="M35 30C32.7344 30 32.5 27.5 29.1406 27.5C25.7812 27.5 25.4688 30 23.2812 30C21.1719 30 20.8594 27.5 17.5 27.5C14.1406 27.5 13.75 30 11.6406 30C9.45312 30 9.21875 27.5 5.78125 27.5C2.42188 27.5 2.1875 30 0 30V23.75C0 21.7188 1.64062 20 3.75 20H5V8.75H10V20H15V8.75H20V20H25V8.75H30V20H31.25C33.2812 20 35 21.7188 35 23.75V30ZM35 40H0V32.5C3.35938 32.5 3.59375 30 5.78125 30C7.96875 30 8.28125 32.5 11.6406 32.5C15 32.5 15.3125 30 17.5 30C19.6875 30 19.9219 32.5 23.2812 32.5C26.7188 32.5 26.9531 30 29.1406 30C31.25 30 31.5625 32.5 35 32.5V40ZM7.5 7.5C6.09375 7.5 5 6.40625 5 5C5 2.57812 7.5 3.20312 7.5 0C8.4375 0 10 2.34375 10 4.375C10 6.48438 8.82812 7.5 7.5 7.5ZM17.5 7.5C16.0938 7.5 15 6.40625 15 5C15 2.57812 17.5 3.20312 17.5 0C18.4375 0 20 2.34375 20 4.375C20 6.48438 18.8281 7.5 17.5 7.5ZM27.5 7.5C26.0938 7.5 25 6.40625 25 5C25 2.57812 27.5 3.20312 27.5 0C28.4375 0 30 2.34375 30 4.375C30 6.48438 28.8281 7.5 27.5 7.5Z" fill="url(#paint0_linear_56_11525)"/>
    <defs>
        <linearGradient id="paint0_linear_56_11525" x1="0" y1="20" x2="35" y2="20" gradientUnits="userSpaceOnUse">
            <stop stop-color="#A42CC8"/>
            <stop offset="0.565" stop-color="#DF298A"/>
        </linearGradient>
    </defs>
</svg>
