<svg width="51" height="33" viewBox="0 0 51 33" fill="none" xmlns="http://www.w3.org/2000/svg">
    <path d="M49.6719 13C50.375 13 51 13.625 50.9219 14.3281V16.8281C50.9219 17.4531 50.4531 18 49.75 18.0781C46.7031 18.3125 41.5469 22.0625 38.9688 23.1562C36.2344 24.4062 33.7344 25.5 30.9219 25.5C28.7344 25.5 27.0156 24.875 25.8438 23.5469C24.0469 21.5938 24.0469 19.25 24.2031 16.9844C19.8281 20.5 11 29.0156 7.71875 32.2969C7.25 32.7656 6.625 33 6 33C3.89062 33 3.10938 30.8906 3.65625 29.6406L11.3125 10.4219C11.9375 8.85938 10.2188 7.375 8.73438 8.3125L4.20312 11.3594C3.65625 11.75 2.875 11.5156 2.48438 10.9688L1.15625 8.85938C0.765625 8.23438 1 7.45312 1.54688 7.14062L5.84375 4.25C11.7812 0.421875 18.3438 6.35938 16 12.2969L12.7188 20.3438C20.9219 12.4531 23.9688 10.6562 26 10.5C30.2188 10.2656 29.3594 15.8125 29.2812 16.4375C28.9688 19.25 29.2031 20.5 31 20.5C32.6406 20.5 34.6719 19.6406 36.9375 18.625C39.8281 17.2969 45.6094 13.3125 49.6719 13Z" fill="url(#paint0_linear_55_11480)"/>
    <defs>
        <linearGradient id="paint0_linear_55_11480" x1="1" y1="18" x2="51" y2="18" gradientUnits="userSpaceOnUse">
            <stop stop-color="#A42CC8"/>
            <stop offset="0.565" stop-color="#DF298A"/>
        </linearGradient>
    </defs>
</svg>
